<svg width="30" height="32" viewBox="0 0 30 32" fill="none" xmlns="http://www.w3.org/2000/svg">
<path d="M15 9.83331C16.6355 9.83331 18.204 10.483 19.3605 11.6395C20.517 12.796 21.1667 14.3645 21.1667 16C21.1667 17.6355 20.517 19.204 19.3605 20.3605C18.204 21.5169 16.6355 22.1666 15 22.1666C13.3645 22.1666 11.796 21.5169 10.6395 20.3605C9.48303 19.204 8.83333 17.6355 8.83333 16C8.83333 14.3645 9.48303 12.796 10.6395 11.6395C11.796 10.483 13.3645 9.83331 15 9.83331M15 12.9166C14.1822 12.9166 13.398 13.2415 12.8198 13.8197C12.2415 14.398 11.9167 15.1822 11.9167 16C11.9167 16.8177 12.2415 17.602 12.8198 18.1802C13.398 18.7585 14.1822 19.0833 15 19.0833C15.8177 19.0833 16.602 18.7585 17.1802 18.1802C17.7585 17.602 18.0833 16.8177 18.0833 16C18.0833 15.1822 17.7585 14.398 17.1802 13.8197C16.602 13.2415 15.8177 12.9166 15 12.9166ZM11.9167 31.4166C11.5312 31.4166 11.2075 31.1391 11.1458 30.7691L10.5754 26.6837C9.60416 26.2983 8.77166 25.7741 7.97 25.1575L4.13125 26.7146C3.79208 26.8379 3.37583 26.7146 3.19083 26.3754L0.107497 21.0412C-0.0929201 20.7021 -0.000419948 20.2858 0.292497 20.0546L3.54541 17.4954L3.4375 16L3.54541 14.4583L0.292497 11.9454C-0.000419948 11.7141 -0.0929201 11.2979 0.107497 10.9587L3.19083 5.62456C3.37583 5.2854 3.79208 5.14665 4.13125 5.2854L7.97 6.82706C8.77166 6.22581 9.60416 5.70165 10.5754 5.31623L11.1458 1.23081C11.2075 0.860813 11.5312 0.583313 11.9167 0.583313H18.0833C18.4687 0.583313 18.7925 0.860813 18.8542 1.23081L19.4246 5.31623C20.3958 5.70165 21.2283 6.22581 22.03 6.82706L25.8687 5.2854C26.2079 5.14665 26.6242 5.2854 26.8092 5.62456L29.8925 10.9587C30.0929 11.2979 30.0004 11.7141 29.7075 11.9454L26.4546 14.4583L26.5625 16L26.4546 17.5416L29.7075 20.0546C30.0004 20.2858 30.0929 20.7021 29.8925 21.0412L26.8092 26.3754C26.6242 26.7146 26.2079 26.8533 25.8687 26.7146L22.03 25.1729C21.2283 25.7741 20.3958 26.2983 19.4246 26.6837L18.8542 30.7691C18.7925 31.1391 18.4687 31.4166 18.0833 31.4166H11.9167ZM13.8437 3.66665L13.2733 7.6904C11.4233 8.07581 9.78916 9.06248 8.60208 10.4346L4.88666 8.83123L3.73041 10.8354L6.98333 13.225C6.36666 15.0287 6.36666 16.9866 6.98333 18.775L3.715 21.18L4.87125 23.1841L8.6175 21.5808C9.80458 22.9375 11.4233 23.9241 13.2579 24.2941L13.8283 28.3333H16.1717L16.7421 24.3096C18.5767 23.9241 20.1954 22.9375 21.3825 21.5808L25.1287 23.1841L26.285 21.18L23.0167 18.7904C23.6333 16.9866 23.6333 15.0287 23.0167 13.225L26.2696 10.8354L25.1133 8.83123L21.3979 10.4346C20.2108 9.06248 18.5767 8.07581 16.7267 7.70581L16.1562 3.66665H13.8437Z" fill="#5C70C1"/>
</svg>
